<?xml version="1.0" encoding="UTF-8" standalone="no"?>
<!DOCTYPE svg PUBLIC "-//W3C//DTD SVG 1.1//EN" "http://www.w3.org/Graphics/SVG/1.1/DTD/svg11.dtd">
<svg width="100%" height="100%" viewBox="0 0 2030 483" version="1.1" xmlns="http://www.w3.org/2000/svg" xmlns:xlink="http://www.w3.org/1999/xlink" xml:space="preserve" xmlns:serif="http://www.serif.com/" style="fill-rule:evenodd;clip-rule:evenodd;stroke-linecap:round;stroke-linejoin:round;stroke-miterlimit:1.5;">
    <g transform="matrix(1.16812,0,0,0.801475,-319.368,51.3191)">
        <g transform="matrix(219.156,0,0,319.411,733.146,364.242)">
            <path d="M0.071,-0.716L0.362,-0.716L0.474,-0.28L0.585,-0.716L0.876,-0.716L0.876,0L0.695,0L0.695,-0.546L0.555,0L0.391,0L0.252,-0.546L0.252,0L0.071,0L0.071,-0.716Z" style="fill-rule:nonzero;"/>
        </g>
        <g transform="matrix(219.156,0,0,319.411,939.996,364.242)">
            <path d="M0.606,0L0.421,0L0.421,-0.084C0.393,-0.049 0.365,-0.025 0.337,-0.01C0.309,0.004 0.274,0.012 0.233,0.012C0.179,0.012 0.136,-0.005 0.105,-0.037C0.074,-0.07 0.058,-0.12 0.058,-0.188L0.058,-0.519L0.258,-0.519L0.258,-0.233C0.258,-0.201 0.264,-0.178 0.276,-0.164C0.288,-0.15 0.305,-0.144 0.327,-0.144C0.35,-0.144 0.37,-0.153 0.385,-0.171C0.4,-0.189 0.408,-0.222 0.408,-0.269L0.408,-0.519L0.606,-0.519L0.606,0Z" style="fill-rule:nonzero;"/>
        </g>
        <g transform="matrix(219.156,0,0,319.411,1086.17,364.242)">
            <path d="M0.025,-0.144L0.222,-0.163C0.23,-0.139 0.242,-0.122 0.256,-0.112C0.271,-0.102 0.291,-0.097 0.315,-0.097C0.342,-0.097 0.362,-0.103 0.377,-0.114C0.388,-0.123 0.394,-0.133 0.394,-0.146C0.394,-0.16 0.387,-0.171 0.372,-0.179C0.361,-0.185 0.332,-0.191 0.286,-0.2C0.217,-0.212 0.169,-0.223 0.142,-0.233C0.115,-0.243 0.093,-0.261 0.074,-0.285C0.056,-0.309 0.047,-0.337 0.047,-0.368C0.047,-0.402 0.057,-0.432 0.077,-0.457C0.097,-0.481 0.124,-0.5 0.159,-0.512C0.194,-0.524 0.24,-0.53 0.299,-0.53C0.361,-0.53 0.406,-0.526 0.436,-0.516C0.465,-0.507 0.49,-0.492 0.51,-0.472C0.529,-0.452 0.546,-0.425 0.559,-0.392L0.37,-0.373C0.365,-0.39 0.357,-0.402 0.346,-0.41C0.33,-0.42 0.311,-0.425 0.289,-0.425C0.267,-0.425 0.25,-0.421 0.24,-0.413C0.23,-0.405 0.225,-0.396 0.225,-0.384C0.225,-0.372 0.231,-0.362 0.244,-0.356C0.257,-0.349 0.285,-0.343 0.329,-0.338C0.395,-0.331 0.444,-0.32 0.477,-0.307C0.509,-0.293 0.533,-0.274 0.551,-0.25C0.568,-0.225 0.576,-0.198 0.576,-0.168C0.576,-0.138 0.567,-0.109 0.549,-0.081C0.531,-0.053 0.503,-0.03 0.464,-0.013C0.425,0.003 0.372,0.012 0.305,0.012C0.21,0.012 0.142,-0.002 0.102,-0.029C0.062,-0.056 0.036,-0.094 0.025,-0.144Z" style="fill-rule:nonzero;"/>
        </g>
        <g transform="matrix(219.156,0,0,319.411,1220.04,364.242)">
            <path d="M0.06,-0.716L0.259,-0.716L0.259,-0.452C0.286,-0.48 0.313,-0.5 0.339,-0.512C0.366,-0.524 0.398,-0.53 0.434,-0.53C0.488,-0.53 0.531,-0.514 0.562,-0.481C0.593,-0.448 0.608,-0.398 0.608,-0.33L0.608,0L0.409,0L0.409,-0.285C0.409,-0.318 0.403,-0.341 0.391,-0.354C0.379,-0.368 0.362,-0.375 0.34,-0.375C0.316,-0.375 0.296,-0.365 0.281,-0.347C0.266,-0.329 0.259,-0.296 0.259,-0.249L0.259,0L0.06,0L0.06,-0.716Z" style="fill-rule:nonzero;"/>
        </g>
        <g transform="matrix(219.156,0,0,319.411,1366.22,364.242)">
            <path d="M0.002,-0.519L0.194,-0.519L0.277,-0.192L0.382,-0.519L0.562,-0.519L0.672,-0.191L0.755,-0.519L0.946,-0.519L0.755,0L0.578,0L0.473,-0.312L0.372,0L0.194,0L0.002,-0.519Z" style="fill-rule:nonzero;"/>
        </g>
        <g transform="matrix(219.156,0,0,319.411,1570.6,364.242)">
            <path d="M0.241,-0.351L0.051,-0.371C0.058,-0.404 0.069,-0.43 0.082,-0.449C0.096,-0.468 0.115,-0.485 0.141,-0.499C0.159,-0.509 0.184,-0.516 0.216,-0.522C0.248,-0.528 0.282,-0.53 0.319,-0.53C0.379,-0.53 0.427,-0.527 0.463,-0.52C0.499,-0.514 0.529,-0.5 0.553,-0.479C0.57,-0.464 0.583,-0.443 0.593,-0.416C0.603,-0.389 0.608,-0.364 0.608,-0.339L0.608,-0.11C0.608,-0.086 0.609,-0.067 0.613,-0.053C0.616,-0.039 0.622,-0.021 0.633,0L0.446,0C0.439,-0.013 0.434,-0.024 0.432,-0.031C0.429,-0.038 0.427,-0.049 0.425,-0.063C0.399,-0.038 0.373,-0.021 0.347,-0.01C0.312,0.005 0.271,0.012 0.225,0.012C0.163,0.012 0.116,-0.003 0.084,-0.031C0.052,-0.06 0.036,-0.095 0.036,-0.137C0.036,-0.177 0.047,-0.209 0.07,-0.234C0.093,-0.26 0.136,-0.279 0.198,-0.291C0.273,-0.306 0.321,-0.316 0.343,-0.323C0.365,-0.329 0.389,-0.336 0.414,-0.346C0.414,-0.371 0.409,-0.388 0.398,-0.397C0.388,-0.407 0.371,-0.412 0.345,-0.412C0.313,-0.412 0.288,-0.407 0.272,-0.396C0.259,-0.388 0.249,-0.373 0.241,-0.351ZM0.414,-0.246C0.386,-0.236 0.358,-0.228 0.328,-0.22C0.288,-0.209 0.262,-0.199 0.251,-0.188C0.24,-0.178 0.235,-0.166 0.235,-0.152C0.235,-0.136 0.24,-0.123 0.251,-0.114C0.262,-0.104 0.278,-0.099 0.299,-0.099C0.321,-0.099 0.342,-0.104 0.361,-0.115C0.38,-0.125 0.394,-0.139 0.402,-0.154C0.41,-0.17 0.414,-0.19 0.414,-0.214L0.414,-0.246Z" style="fill-rule:nonzero;"/>
        </g>
        <g transform="matrix(219.156,0,0,319.411,1716.78,364.242)">
            <path d="M0.062,-0.519L0.248,-0.519L0.248,-0.434C0.266,-0.47 0.284,-0.496 0.303,-0.51C0.323,-0.523 0.346,-0.53 0.374,-0.53C0.403,-0.53 0.435,-0.521 0.47,-0.503L0.409,-0.361C0.385,-0.371 0.367,-0.376 0.353,-0.376C0.327,-0.376 0.307,-0.365 0.292,-0.344C0.272,-0.313 0.262,-0.257 0.262,-0.174L0.262,0L0.062,0L0.062,-0.519Z" style="fill-rule:nonzero;"/>
        </g>
        <g transform="matrix(219.156,0,0,319.411,1817.58,364.242)">
            <path d="M0.636,-0.21L0.237,-0.21C0.241,-0.178 0.25,-0.154 0.263,-0.139C0.282,-0.116 0.307,-0.105 0.338,-0.105C0.358,-0.105 0.376,-0.11 0.394,-0.12C0.405,-0.126 0.416,-0.137 0.429,-0.152L0.625,-0.134C0.595,-0.082 0.558,-0.045 0.516,-0.022C0.474,0 0.413,0.012 0.334,0.012C0.265,0.012 0.211,0.002 0.172,-0.017C0.132,-0.037 0.1,-0.067 0.074,-0.11C0.048,-0.152 0.035,-0.201 0.035,-0.258C0.035,-0.339 0.061,-0.405 0.113,-0.455C0.165,-0.505 0.237,-0.53 0.328,-0.53C0.402,-0.53 0.461,-0.519 0.504,-0.497C0.547,-0.474 0.58,-0.442 0.602,-0.399C0.625,-0.356 0.636,-0.301 0.636,-0.232L0.636,-0.21ZM0.434,-0.305C0.43,-0.344 0.419,-0.371 0.403,-0.388C0.386,-0.404 0.364,-0.413 0.336,-0.413C0.305,-0.413 0.28,-0.4 0.261,-0.375C0.249,-0.359 0.241,-0.336 0.238,-0.305L0.434,-0.305Z" style="fill-rule:nonzero;"/>
        </g>
    </g>
    <g>
        <path d="M64,64L160,96" style="fill:none;stroke:rgb(179,179,179);stroke-width:12px;"/>
        <path d="M128,128L224,160" style="fill:none;stroke:rgb(179,179,179);stroke-width:12px;"/>
        <path d="M64,320L160,352" style="fill:none;stroke:rgb(179,179,179);stroke-width:12px;"/>
        <path d="M128,384L224,416" style="fill:none;stroke:rgb(179,179,179);stroke-width:12px;"/>
        <path d="M384,384L480,416" style="fill:none;stroke:rgb(179,179,179);stroke-width:12px;"/>
        <path d="M320,320L416,352" style="fill:none;stroke:rgb(179,179,179);stroke-width:12px;"/>
        <path d="M320,64L416,96" style="fill:none;stroke:rgb(179,179,179);stroke-width:12px;"/>
        <path d="M384,128C384,128 480.345,160.019 480,160" style="fill:none;stroke:rgb(179,179,179);stroke-width:12px;"/>
        <g transform="matrix(1,0,0,1,96,32)">
            <g transform="matrix(1,0,0,1,0,-32)">
                <rect x="64" y="96" width="256" height="256" style="fill:rgb(235,235,235);fill-opacity:0;stroke:rgb(115,115,115);stroke-width:12px;"/>
            </g>
            <g transform="matrix(1,0,0,1,64,32)">
                <rect x="64" y="96" width="256" height="256" style="fill:rgb(235,235,235);fill-opacity:0;stroke:rgb(115,115,115);stroke-width:12px;"/>
            </g>
            <g transform="matrix(1.06667,0,0,1,-8.53333,0)">
                <path d="M68,64L128,128" style="fill:none;stroke:rgb(115,115,115);stroke-width:11.61px;"/>
            </g>
            <path d="M128,384L64,320" style="fill:none;stroke:rgb(115,115,115);stroke-width:12px;"/>
            <path d="M320,64L384,128" style="fill:none;stroke:rgb(115,115,115);stroke-width:12px;"/>
            <path d="M320,320L384,384" style="fill:none;stroke:rgb(115,115,115);stroke-width:12px;"/>
        </g>
        <g>
            <g transform="matrix(1,0,0,1,0,-32)">
                <rect x="64" y="96" width="256" height="256" style="fill:rgb(235,235,235);fill-opacity:0;stroke:black;stroke-width:12px;"/>
            </g>
            <g transform="matrix(1,0,0,1,64,32)">
                <rect x="64" y="96" width="256" height="256" style="fill:rgb(235,235,235);fill-opacity:0;stroke:black;stroke-width:12px;"/>
            </g>
            <g transform="matrix(1.06667,0,0,1,-8.53333,0)">
                <path d="M68,64L128,128" style="fill:none;stroke:black;stroke-width:11.61px;"/>
            </g>
            <path d="M128,384L64,320" style="fill:none;stroke:black;stroke-width:12px;"/>
            <path d="M320,64L384,128" style="fill:none;stroke:black;stroke-width:12px;"/>
            <path d="M320,320L384,384" style="fill:none;stroke:black;stroke-width:12px;"/>
        </g>
    </g>
</svg>
